Coordinates
version=1
nRows=24
nColumns=22
inDegrees=yes

Units are S.I. units (second, meters, Newtons, ...)
If the header above contains a line with 'inDegrees', this indicates whether rotational values are in degrees (yes) or radians (no).

endheader
time	pelvis_tilt	pelvis_list	pelvis_rotation	pelvis_tx	pelvis_ty	pelvis_tz	hip_flexion_r	hip_adduction_r	hip_rotation_r	knee_angle_r	ankle_angle_r	subtalar_angle_r	hip_flexion_l	hip_adduction_l	hip_rotation_l	knee_angle_l	ankle_angle_l	subtalar_angle_l	lumbar_extension	lumbar_bending	lumbar_rotation
      1.91000000	      5.35603110	     -5.16857397	     71.68255902	      0.83106216	      0.93073401	      0.39611456	     28.81870589	     -0.66558549	      5.40974948	    -21.68037646	     -1.23690746	      9.48965531	    -13.31021386	     -7.00093514	     31.28990073	    -21.21413494	     14.44073584	     -0.45027734	     -1.32122565	      3.92278884	    -12.51868294
      1.92000000	      5.75351662	     -5.10370092	     72.04130329	      0.83848607	      0.93088689	      0.38742295	     28.78810667	     -0.14395894	      5.02289597	    -23.05785655	     -1.44492283	      9.87861760	    -13.17680009	     -7.25373241	     30.83259067	    -22.87215870	     13.42920565	      0.51717514	     -1.27930130	      4.34031654	    -12.19741294
      1.93000000	      6.11655128	     -5.02989628	     72.37607924	      0.84569811	      0.93123242	      0.37864156	     28.66791275	      0.29359558	      4.52257893	    -24.30145780	     -1.31121322	     10.25401253	    -12.84306189	     -7.38902401	     30.19111884	    -24.81879552	     12.25227210	      1.49655900	     -1.23352682	      4.74002587	    -11.84848213
      1.94000000	      6.44003269	     -4.95878508	     72.69365933	      0.85271819	      0.93174713	      0.36984915	     28.47671268	      0.66072065	      3.94552130	    -25.41339213	     -0.90103273	     10.55951708	    -12.28520593	     -7.42852632	     29.36081196	    -27.04034715	     10.91947395	      2.40417757	     -1.17573360	      5.11168115	    -11.50988449
      1.95000000	      6.72034694	     -4.90936281	     73.02248382	      0.85951390	      0.93239808	      0.36114321	     28.22851403	      0.96519473	      3.31698428	    -26.37226547	     -0.31421871	     10.76978211	    -11.44534630	     -7.39515944	     28.35881952	    -29.56203872	      9.45154667	      3.19519100	     -1.09293798	      5.45015153	    -11.18861525
      1.96000000	      6.96927010	     -4.88555192	     73.37905657	      0.86609007	      0.93315957	      0.35260143	     27.92211278	      1.23450576	      2.68276996	    -27.16886369	      0.40479204	     10.87608104	    -10.30954557	     -7.32906325	     27.20676329	    -32.37490471	      7.88021577	      3.83937199	     -0.99093969	      5.76085869	    -10.89729503
      1.97000000	      7.24004013	     -4.90364761	     73.77327509	      0.87248843	      0.93400820	      0.34429480	     27.55570565	      1.54175800	      2.06501733	    -27.78493987	      1.14940364	     10.86195893	     -8.88502086	     -7.31867080	     25.93445749	    -35.44382845	      6.23564771	      4.17468752	     -0.87470483	      6.09878789	    -10.64583924
      1.98000000	      7.42640309	     -4.97364718	     74.22539123	      0.87862702	      0.93484093	      0.33626207	     27.22386689	      1.76942929	      1.44235110	    -28.30079330	      1.94704288	     10.76708998	     -7.14370288	     -7.26973593	     24.66872245	    -38.70863383	      4.53253273	      4.40502930	     -0.70036747	      6.34626948	    -10.42795482
      1.99000000	      7.65661084	     -5.07634607	     74.72213485	      0.88462222	      0.93571079	      0.32849746	     26.84640334	      2.06586905	      0.85308805	    -28.67105766	      2.68555767	     10.57450875	     -5.20182508	     -7.33447590	     23.39570575	    -42.06786332	      2.85192911	      4.29111172	     -0.52785454	      6.63170664	    -10.25128583
      2.00000000	      7.90211951	     -5.20093031	     75.26259862	      0.89046100	      0.93657809	      0.32100849	     26.45250389	      2.39721946	      0.29419370	    -28.94090272	      3.36510576	     10.27829216	     -3.10676567	     -7.48179095	     22.18822508	    -45.43467207	      1.26735825	      3.80450885	     -0.35951660	      6.91816640	    -10.10780687
      2.01000000	      8.19069190	     -5.32420298	     75.82974498	      0.89619469	      0.93748808	      0.31371852	     26.00159520	      2.78911519	     -0.24394757	    -29.09474095	      3.96996290	      9.90928996	     -0.95455997	     -7.74032884	     21.05615872	    -48.69764737	     -0.11811585	      2.99253113	     -0.21885487	      7.22758107	     -9.97439993
      2.02000000	      8.52589059	     -5.42645275	     76.40842186	      0.90183597	      0.93844349	      0.30660315	     25.48772397	      3.24255188	     -0.75699429	    -29.15394106	      4.49565137	      9.49800118	      1.18841456	     -8.10016058	     20.01885313	    -51.78712751	     -1.17393209	      1.94781853	     -0.12612002	      7.56079919	     -9.82873915
      2.03000000	      8.89360383	     -5.49702238	     76.98905638	      0.90737335	      0.93946028	      0.29960656	     24.90182936	      3.73994600	     -1.23656448	    -29.11862571	      4.95425079	      9.08273501	      3.27716461	     -8.53433921	     19.07650701	    -54.63955667	     -1.80425241	      0.77657016	     -0.08229725	      7.90513374	     -9.68131475
      2.04000000	      9.27071227	     -5.53743606	     77.56480866	      0.91278544	      0.94053243	      0.29268768	     24.25754950	      4.25328200	     -1.69523509	    -29.00425781	      5.37089799	      8.67510363	      5.28696520	     -8.99470335	     18.24194895	    -57.21081225	     -1.99687709	     -0.50744698	     -0.07435433	      8.23846085	     -9.51600831
      2.05000000	      9.63682284	     -5.53205424	     78.10360048	      0.91804556	      0.94168584	      0.28579175	     23.53850939	      4.76292804	     -2.10635690	    -28.80849078	      5.74681923	      8.28608881	      7.17076836	     -9.43776404	     17.47416860	    -59.46305937	     -1.80210978	     -1.90024186	     -0.11319354	      8.54659753	     -9.30764908
      2.06000000	      9.96793961	     -5.49153460	     78.60827954	      0.92309088	      0.94289738	      0.27888844	     22.76924034	      5.23326198	     -2.49715260	    -28.55377821	      6.08203511	      7.93756304	      8.93449880	     -9.81984563	     16.76250130	    -61.38442685	     -1.30659965	     -3.30486131	     -0.17863698	      8.81569442	     -9.06201589
      2.07000000	     10.24040183	     -5.42297635	     79.08620908	      0.92786931	      0.94416391	      0.27195325	     21.94627131	      5.63929050	     -2.84683569	    -28.22188697	      6.41414624	      7.63795614	     10.57798234	    -10.09201039	     16.10997401	    -62.96426035	     -0.61403466	     -4.59011550	     -0.25228392	      9.02523927	     -8.79299335
      2.08000000	     10.44422512	     -5.32354574	     79.51832505	      0.93237548	      0.94547291	      0.26499429	     21.08905661	      5.96808953	     -3.16655211	    -27.85328590	      6.73270736	      7.38234513	     12.09015289	    -10.23890825	     15.46846179	    -64.20243584	      0.19130494	     -5.68029512	     -0.34098563	      9.16842351	     -8.48262642
      2.09000000	     10.56884528	     -5.20657029	     79.92005512	      0.93656924	      0.94680319	      0.25800938	     20.20637019	      6.20475353	     -3.45846342	    -27.44136045	      7.05322748	      7.17946514	     13.48662627	    -10.23518821	     14.84587861	    -65.10520233	      1.04891753	     -6.46848958	     -0.42625581	      9.24088555	     -8.14454967
      2.10000000	     10.62134636	     -5.07722694	     80.28426099	      0.94046252	      0.94813321	      0.25104695	     19.31500634	      6.36188959	     -3.70341277	    -27.00555521	      7.35337154	      7.05724974	     14.77273553	    -10.08330609	     14.23152252	    -65.68997243	      1.93740945	     -6.86780160	     -0.51375522	      9.25066037	     -7.75280028
      2.11000000	     10.55656080	     -4.93409013	     80.62816799	      0.94402228	      0.94944522	      0.24408272	     18.42917372	      6.37853138	     -3.93867119	    -26.56954932	      7.68859566	      6.98971640	     15.95120702	     -9.73345144	     13.61206355	    -65.95415910	      2.79811218	     -7.01325514	     -0.59262164	      9.14958488	     -7.36313830
      2.12000000	     10.46289435	     -4.80794724	     80.96090416	      0.94733260	      0.95068478	      0.23717322	     17.56534640	      6.35985703	     -4.17433878	    -26.12071809	      7.99299957	      6.91357721	     17.06492536	     -9.30997697	     12.98803468	    -65.93798344	      3.63001204	     -7.05007006	     -0.65435624	      9.03514007	     -6.95458722
      2.13000000	     10.27315419	     -4.63401389	     81.24325919	      0.95041669	      0.95194232	      0.23027227	     16.67149931	      6.23369648	     -4.36945169	    -25.68241879	      8.30333957	      6.77001790	     18.02907831	     -8.74909349	     12.30456038	    -65.63068003	      4.43090168	     -6.57420576	     -0.76389976	      8.82182932	     -6.47560673
      2.14000000	     10.09167783	     -4.51000848	     81.55088745	      0.95331028	      0.95304709	      0.22343853	     15.82311608	      6.11811253	     -4.56116601	    -25.22158879	      8.59010876	      6.69861787	     18.99777750	     -8.19604759	     11.63441402	    -65.11312065	      5.23859234	     -5.78907918	     -0.81976736	      8.63427410	     -6.05903037
